# xmcd
#
# Track frame offsets:
#	150
#	14540
#	29372
#	46023
#	61107
#	73374
#	85242
#	103969
#	119071
#	141613
#	156067
#	170105
#	186464
#	201522
#	228317
#	247994
#	263871
#	283622
#	296395
#	311589
#
# Disc length: 4412 seconds
#
# Revision: 1
# Processed by: cddbd v1.5.1PL2 Copyright (c) Steve Scherf et al.
# Submitted via: audiograbber 1.83.01
#
DISCID=38113a14
DTITLE=Various Artist - Norway Now - Blues  Country
DYEAR=2006
DGENRE=
TTITLE0=Amund Maarud - Late Night Toy
TTITLE1=Bjørn Berge - They Haven´t Seen The Last Of Me
TTITLE2=Cinnamoon - Roll On
TTITLE3=Colt - Take Me High
TTITLE4=Good Time Charlie - She´s Drivin´me Real Crazy
TTITLE5=Heltberg - Under Water
TTITLE6=Home Again - Astrodome
TTITLE7=Hungry John - So Fine
TTITLE8=Jolly Jumper and Big Moe - Hell Station Blues
TTITLE9=Kristin Berglund - Send Me An Angel
TTITLE10=Notodden Bluesband and Torhild Silverstein - Island
TTITLE11=Ove Støylen - Hopelessly
TTITLE12=Rita Engedalen - Stone Cold Lonesome Heart
TTITLE13=Ronnie Jacobsen - Told You So
TTITLE14=Scarecrows - The Mess I´m In
TTITLE15=Spoonful Of Blues - Evil Going Down
TTITLE16=Tiger City Jukes - Denise
TTITLE17=Toini and The Tomcats - The Moon´s Blue Too
TTITLE18=Tore Andersen - By The Light Of The Moon
TTITLE19=Vidar Busk - Bang The Drum
EXTD=
EXTT0=
EXTT1=
EXTT2=
EXTT3=
EXTT4=
EXTT5=
EXTT6=
EXTT7=
EXTT8=
EXTT9=
EXTT10=
EXTT11=
EXTT12=
EXTT13=
EXTT14=
EXTT15=
EXTT16=
EXTT17=
EXTT18=
EXTT19=
PLAYORDER=
